<?xml version="1.0" encoding="utf-8"?>
<!-- Generator: Adobe Illustrator 22.1.0, SVG Export Plug-In . SVG Version: 6.00 Build 0)  -->
<svg version="1.1" id="Layer_1" xmlns="http://www.w3.org/2000/svg" xmlns:xlink="http://www.w3.org/1999/xlink" x="0px" y="0px"
	 viewBox="0 0 58.5 85.3" style="enable-background:new 0 0 58.5 85.3;" xml:space="preserve">
<style type="text/css">
	.st00{fill:#ED9222;}
	.st11{fill:#F68B34;}
	.st22{fill:#F0CE50;}
	.st33{fill:#F8DB53;}
	.st44{fill:#FFFFFF;}
	.st55{fill:none;stroke:#000000;stroke-miterlimit:10;}
	.st66{fill:#FFFFFF;stroke:#ED9222;stroke-miterlimit:10;}
	.st77{fill:#553F1C;}
	.st88{stroke:#000000;stroke-width:0.5;stroke-miterlimit:10;}
</style>
<title>King</title>
<path class="st00" d="M23.2,27.4l2.4-0.7c0,0,3.4,3.8,9.2,0l2.7,0.8c0,0-3.6,5.3-5.8,5.6c-1.5,0.1-3.1,0.1-4.6,0
	C27.1,33.1,22.6,29.2,23.2,27.4z"/>
<path class="st11" d="M40.8,26.9c0,0,6.6,3.5,7,6.3c0,0,8.2,0.2,9.5,3.1l-3.6,6.8v2.2h4.8V71L54,71.3v1H6v-1.4H0V45.1l9.5,0.2
	c0,0-4.5-2.2-5.1-6.1c-0.3-2.7-0.2-5.4,0.4-8c0,0-4.2-3-3.1-6.3S8.2,22,8.2,22s2.5,0.9,2.8,2.1c0,0,2.8-1.3,3.3,1.8
	s-0.6,3.2-0.6,3.2l2.2,1l3-2.5l0.7-0.7C19.7,26.7,29.8,23.8,40.8,26.9z"/>
<path class="st22" d="M7,30l4.8-1.5v-2.8H11v1c0,0-1.4,1.1-2.1-1c-0.4-1.2-1.4-2.1-2.6-2.3c0,0-3.1,0.4-1.8,3.3S7,30,7,30z"/>
<path class="st22" d="M7.2,32.3c0,0,4.8-3.3,6.2-1.6c0,0,1.2,2.6,2.8,1.6s4.1-4.5,4.7-3.5s4.4,5.2,4.4,5.2s-4.2,2.1-5.7,2.2
	c0,0,1.6,4.9,2.3,5s-3.3,0.9-4.4,0.6l-3.1,2.7C14.5,44.5,2.8,42.2,7.2,32.3z"/>
<path class="st33" d="M39.8,28.6c0,0,5.2,2.9,5.2,4c0,0-4.8,0-5.9,2.1c0,0-3.3-0.9-3.2-1.5C35.8,32.6,39.8,28.6,39.8,28.6z"/>
<path class="st33" d="M43.8,43.2l1.2,1.9h5.9c0,0,1.5-4.7-5.9-3.4C45,41.7,43.2,42.2,43.8,43.2z"/>
<polygon class="st4" points="46.5,47 49.1,47 49.1,57.9 "/>
<path class="st22" d="M18.5,43.3h21.1c0,0,8.7,4.4,7.8,18.1h-35C12.3,61.4,10.1,50.2,18.5,43.3z"/>
<polygon class="st44" points="2.4,47 8.5,47 8.5,61.8 5.5,61.8 5.5,69.2 2.4,69.2 "/>
<polygon class="st44" points="51.7,47 56.2,47 56.2,69.6 53.9,69.6 53.9,61.6 51.7,61.7 "/>
<rect x="8.5" y="63.5" class="st5" width="43.2" height="6.8"/>
<path class="st66" d="M24.2,41.7h17.5c0,0,5-5.3,10.6,0l2-5.1c0,0-8.9-3.7-13-1.5c0,0-2,0.3-0.9,2.5l-3,0.4c0,0-0.2-4-3.4-3.7
	s-11.2,2-11.3,2.6L24.2,41.7z"/>
<rect x="12.8" y="65.9" class="st5" width="3.4" height="2"/>
<rect x="22.7" y="65.9" class="st5" width="3.3" height="2"/>
<rect x="32.4" y="65.9" class="st5" width="3.4" height="2"/>
<rect x="42.7" y="65.9" class="st5" width="3.4" height="2"/>
<path class="st77" d="M17.2,18.5c-0.9,0-1.6,0.7-1.7,1.6c-0.1,1.5-0.7,2.8,0.8,3.2s1.5,0.5,1.5,0.5s5.8,10.2,8.3,10.6
	s7.3,0.8,9.2-1.3s7-7.6,6.9-9.1c1.3,0.4,2.6-0.3,3.1-1.5c0.8-2.2-0.2-4.3-2.5-4.4c0,0,0.2-5.7-2.6-6.4c0,0,0.5-4.8-3.1-5.8
	c0,0,0.2-4.8-3.7-5.7c0,0-1.1-0.7-3,0.9L29.6,1c-0.9-1.1-2.5-1.3-3.6-0.5c-0.1,0-0.1,0.1-0.2,0.2c0,0-1.4,0.7-1.2,1.9
	c0,0-2.2-0.2-1.3,3.7c0,0-3.2,0.2-2.9,4.3C20.4,10.6,16.8,11.9,17.2,18.5z"/>
<path class="st22" d="M25.6,4.8L29.3,4c0,0-0.3-2.2-2.2-1.7C26,2.6,25.4,3.7,25.6,4.8z"/>
<path class="st22" d="M31,3.9l3.8,0.4c0,0,0.1-2-1.5-2.1S31.3,1.9,31,3.9z"/>
<path class="st22" d="M23.2,9.6c0,0,5.8-1.2,6.1-0.8s0-2.3,0-2.3C26.8,6,24.2,7.3,23.2,9.6z"/>
<path class="st22" d="M37.9,9.6c0,0-5.8-1.2-6.1-0.8s0-2.3,0-2.3C34.3,6,36.9,7.3,37.9,9.6z"/>
<path class="st22" d="M19.7,17.4h21.1c0,0-0.2-7-9.9-6.9C30.9,10.5,19.2,9.6,19.7,17.4z"/>
<path class="st22" d="M19.7,20.1v-1.2h20.5v1.2h2.2c0,0,2.2,1.1,0,1.8h-2.2c0,0,0.5,3.2-1.1,3.4s-9.2-1.5-9.2-1.5s2.7-3.7,1.1-3.8
	s-2.4,0.8-3.6,4.2c0,0-5,2.2-6.1,1.1c-0.8-0.9-1.4-2-1.7-3.1h-1c0,0-2.4-1,0-2.2h1.1V20.1z"/>
<path class="st00" d="M28.4,25.5h3.9c0,0-1,1.1-1.9,1.1C29.6,26.8,28.7,26.3,28.4,25.5z"/>
<ellipse cx="25.9" cy="21.2" rx="1.1" ry="0.7"/>
<ellipse cx="34" cy="21.2" rx="1.1" ry="0.7"/>
<path class="st88" d="M6.6,81.5h0.6c-0.5-0.6-0.9-1.2-1.4-1.8s-0.9-1.2-1.4-1.8l-0.8,0.8v2.7h0.9V82H2.1v-0.6h0.8V75H2.1v-0.7h2.3V75
	H3.6v3l0.2-0.2l2.8-2.7H6.1v-0.7h2.3v0.7H7.5l-2.6,2.4c0.5,0.7,1,1.3,1.6,2s1,1.3,1.6,2h0.8v0.6H6.6V81.5L6.6,81.5z"/>
<path class="st88" d="M9.6,81.5h0.8v-2.8H9.6V78h1.5v3.5h0.8v0.6H9.6V81.5z M10.3,76.5c0-0.2,0.2-0.3,0.4-0.3s0.3,0.2,0.3,0.4
	c0,0.2-0.2,0.3-0.4,0.3c-0.1,0-0.1,0-0.2-0.1C10.4,76.7,10.3,76.6,10.3,76.5z"/>
<path class="st88" d="M15.8,81.5h0.9v-2.1c0-0.2-0.1-0.4-0.2-0.6s-0.4-0.2-0.7-0.3c-0.2,0-0.4,0-0.6,0.1c-0.2,0.1-0.3,0.2-0.5,0.3
	c-0.1,0.1-0.3,0.3-0.3,0.4c-0.1,0.2-0.1,0.4-0.1,0.6v1.5h0.8V82h-2.3v-0.6h0.8v-2.7h-0.8V78h1.3v1c0.1-0.3,0.4-0.6,0.7-0.8
	c0.3-0.2,0.7-0.3,1.1-0.3c0.4,0,0.7,0.1,1,0.3c0.3,0.2,0.4,0.6,0.4,0.9v2.3H18V82h-2.3v-0.5H15.8z"/>
<path class="st88" d="M22.7,78h1.4v0.7h-0.8v4c0,0.3-0.1,0.6-0.2,0.9c-0.3,0.5-0.7,0.9-1.2,1.2c-0.3,0.1-0.5,0.2-0.8,0.2
	s-0.7-0.1-1-0.2s-0.6-0.3-0.8-0.5l0.5-0.5c0.2,0.2,0.4,0.3,0.6,0.4s0.5,0.1,0.7,0.1s0.4,0,0.6-0.1s0.3-0.2,0.5-0.3
	c0.1-0.2,0.2-0.3,0.3-0.5c0.1-0.2,0.1-0.4,0.1-0.6v-1.2c0,0.1-0.1,0.2-0.2,0.3s-0.2,0.2-0.3,0.2c-0.2,0-0.3,0.1-0.5,0.2
	c-0.2,0-0.4,0.1-0.6,0.1c-0.3,0-0.6-0.1-0.9-0.2s-0.5-0.3-0.7-0.5S19,81.2,18.9,81c-0.1-0.3-0.2-0.5-0.2-0.8s0.1-0.6,0.2-0.8
	c0.3-0.5,0.7-0.9,1.2-1.2c0.3-0.1,0.6-0.2,0.9-0.2c0.2,0,0.4,0,0.6,0.1s0.3,0.1,0.5,0.2s0.3,0.2,0.3,0.3s0.1,0.2,0.2,0.3v-0.4
	C22.7,78.3,22.7,78.2,22.7,78z M19.6,80c0,0.2,0,0.4,0.1,0.6s0.2,0.3,0.3,0.5c0.2,0.1,0.3,0.2,0.5,0.3c0.4,0.1,0.8,0.1,1.2,0
	c0.2-0.1,0.3-0.2,0.5-0.3c0.1-0.2,0.2-0.3,0.3-0.5c0.1-0.4,0.1-0.8,0-1.2c-0.1-0.2-0.2-0.3-0.3-0.5c-0.2-0.1-0.3-0.2-0.5-0.3
	c-0.4-0.1-0.8-0.1-1.2,0c-0.2,0.1-0.3,0.2-0.5,0.3c-0.1,0.2-0.2,0.3-0.3,0.5C19.6,79.6,19.6,79.8,19.6,80z"/>
<path class="st88" d="M28.1,81.2V80h0.7v1c0.2,0.2,0.4,0.3,0.7,0.4c0.3,0.1,0.7,0.2,1,0.2c0.2,0,0.4,0,0.6-0.1s0.3-0.2,0.5-0.3
	c0.2-0.1,0.3-0.3,0.4-0.5c0.1-0.2,0.1-0.4,0.1-0.6c0-0.3-0.1-0.7-0.3-0.9c-0.2-0.2-0.4-0.4-0.7-0.5l-0.9-0.3l-0.9-0.3
	c-0.3-0.1-0.5-0.3-0.7-0.6c-0.2-0.3-0.3-0.6-0.3-1c0-0.2,0-0.5,0.1-0.7c0.1-0.3,0.2-0.5,0.4-0.7c0.2-0.2,0.4-0.4,0.6-0.5
	c0.3-0.1,0.7-0.2,1-0.2s0.6,0,0.9,0.1c0.4,0.1,0.7,0.3,1,0.5v1.1h-0.7v-0.8c-0.1-0.1-0.3-0.1-0.5-0.2C30.9,75,30.6,75,30.4,75
	s-0.4,0-0.6,0.1s-0.3,0.2-0.4,0.3c-0.1,0.1-0.2,0.3-0.3,0.4C29,76,29,76.1,29,76.3c0,0.3,0.1,0.5,0.3,0.7c0.2,0.2,0.4,0.3,0.7,0.4
	l0.9,0.3c0.3,0.1,0.6,0.2,0.9,0.4c0.3,0.2,0.5,0.4,0.7,0.7c0.2,0.4,0.3,0.8,0.3,1.2c0,0.3-0.1,0.6-0.2,0.9c-0.1,0.3-0.3,0.5-0.5,0.7
	s-0.4,0.3-0.7,0.4c-0.3,0.1-0.6,0.1-0.9,0.1s-0.5,0-0.8-0.1c-0.2-0.1-0.5-0.1-0.7-0.2s-0.3-0.2-0.5-0.3
	C28.4,81.4,28.2,81.3,28.1,81.2z"/>
<path class="st88" d="M37.5,79.6l-3.2,1.2c0.1,0.2,0.3,0.4,0.5,0.5s0.5,0.2,0.8,0.2c0.2,0,0.4,0,0.6-0.1c0.2-0.1,0.3-0.2,0.4-0.3
	c0.1,0.1,0.1,0.2,0.2,0.2s0.1,0.2,0.2,0.2c-0.2,0.2-0.4,0.3-0.6,0.4c-0.5,0.3-1.1,0.3-1.6,0s-0.9-0.7-1.2-1.2
	c-0.1-0.3-0.2-0.5-0.2-0.8s0.1-0.6,0.2-0.8c0.1-0.3,0.3-0.5,0.5-0.7s0.5-0.4,0.7-0.5c0.3-0.1,0.5-0.2,0.8-0.2c0.2,0,0.4,0,0.6,0.1
	c0.2,0.1,0.4,0.2,0.6,0.4c0.2,0.1,0.3,0.3,0.4,0.5C37.3,79,37.4,79.3,37.5,79.6z M35.6,78.6c-0.2,0-0.4,0-0.6,0.1
	c-0.4,0.1-0.7,0.4-0.8,0.8c-0.1,0.2-0.1,0.4-0.1,0.6c0.4-0.2,0.8-0.3,1.3-0.5s0.8-0.3,1.3-0.5c-0.1-0.2-0.3-0.3-0.4-0.5H35.6z"/>
<path class="st88" d="M38.3,78h1.4v4.1c0,0.4-0.1,0.8-0.2,1.2c-0.1,0.3-0.3,0.6-0.6,0.8l-0.5-0.5c0.2-0.2,0.3-0.4,0.4-0.6
	c0.1-0.3,0.2-0.6,0.2-0.9v-3.4h-0.7C38.3,78.7,38.3,78,38.3,78z M38.9,76.5c0-0.2,0.2-0.3,0.4-0.3s0.3,0.2,0.3,0.4s-0.2,0.3-0.4,0.3
	c-0.1,0-0.1,0-0.2-0.1C39,76.7,38.9,76.6,38.9,76.5L38.9,76.5z"/>
<path class="st88" d="M40.5,80c0-0.3,0.1-0.6,0.2-0.8c0.1-0.3,0.3-0.5,0.5-0.7s0.5-0.4,0.7-0.5c0.3-0.1,0.5-0.2,0.8-0.2
	s0.6,0.1,0.9,0.2c0.5,0.3,0.9,0.7,1.2,1.2c0.1,0.3,0.2,0.5,0.2,0.8s-0.1,0.6-0.2,0.8c-0.1,0.3-0.3,0.5-0.5,0.7s-0.5,0.4-0.7,0.5
	c-0.3,0.1-0.6,0.2-0.9,0.2c-0.3,0-0.6-0.1-0.8-0.2c-0.5-0.3-0.9-0.7-1.2-1.2C40.5,80.6,40.5,80.3,40.5,80z M41.2,80.1
	c0,0.2,0,0.4,0.1,0.6s0.2,0.3,0.3,0.5c0.2,0.1,0.3,0.2,0.5,0.3c0.4,0.1,0.8,0.1,1.2,0c0.2-0.1,0.3-0.2,0.5-0.3
	c0.1-0.2,0.2-0.3,0.3-0.5c0.1-0.4,0.1-0.8,0-1.2c-0.1-0.2-0.2-0.3-0.3-0.5c-0.2-0.1-0.3-0.2-0.5-0.3c-0.4-0.1-0.8-0.1-1.2,0
	c-0.2,0.1-0.3,0.2-0.5,0.3c-0.1,0.2-0.2,0.3-0.3,0.5S41.2,79.9,41.2,80.1L41.2,80.1z"/>
<path class="st88" d="M48.8,81.5h0.9v-2.1c0-0.2-0.1-0.4-0.2-0.6c-0.1-0.2-0.4-0.2-0.7-0.3c-0.2,0-0.4,0-0.6,0.1
	c-0.2,0.1-0.3,0.2-0.5,0.3c-0.1,0.1-0.3,0.3-0.3,0.4c-0.1,0.2-0.1,0.4-0.1,0.6v1.5h0.8V82h-2.3v-0.6h0.8v-2.7h-0.8V78h1.3v1
	c0.1-0.3,0.4-0.6,0.7-0.8c0.3-0.2,0.7-0.3,1.1-0.3c0.4,0,0.7,0.1,1,0.3c0.3,0.2,0.4,0.6,0.4,0.9v2.3H51V82h-2.3L48.8,81.5L48.8,81.5
	z"/>
<path class="st88" d="M55.6,78H57v0.7h-0.8v4c0,0.3-0.1,0.6-0.2,0.9c-0.3,0.5-0.7,0.9-1.2,1.2C54.5,84.9,54.3,85,54,85
	s-0.7-0.1-1-0.2s-0.6-0.3-0.8-0.5l0.5-0.5c0.2,0.2,0.4,0.3,0.6,0.4c0.2,0.1,0.5,0.1,0.7,0.1s0.4,0,0.6-0.1c0.2-0.1,0.3-0.2,0.5-0.3
	c0.1-0.2,0.2-0.3,0.3-0.5s0.1-0.4,0.1-0.6v-1.2c0,0.1-0.1,0.2-0.2,0.3s-0.2,0.2-0.3,0.2c-0.2,0-0.3,0.1-0.5,0.2
	c-0.2,0-0.4,0.1-0.6,0.1c-0.3,0-0.6-0.1-0.9-0.2c-0.3-0.1-0.5-0.3-0.7-0.5s-0.4-0.5-0.5-0.7c-0.1-0.3-0.2-0.5-0.2-0.8
	s0.1-0.6,0.2-0.8c0.3-0.5,0.7-0.9,1.2-1.2c0.3-0.1,0.6-0.2,0.9-0.2c0.2,0,0.4,0,0.6,0.1c0.2,0.1,0.3,0.1,0.5,0.2s0.3,0.2,0.3,0.3
	s0.1,0.2,0.2,0.3v-0.4C55.6,78.3,55.6,78.2,55.6,78z M52.5,80c0,0.2,0,0.4,0.1,0.6s0.2,0.3,0.3,0.5c0.2,0.1,0.3,0.2,0.5,0.3
	c0.4,0.1,0.8,0.1,1.2,0c0.2-0.1,0.3-0.2,0.5-0.3c0.1-0.2,0.2-0.3,0.3-0.5c0.1-0.4,0.1-0.8,0-1.2c-0.1-0.2-0.2-0.3-0.3-0.5
	c-0.2-0.1-0.3-0.2-0.5-0.3c-0.4-0.1-0.8-0.1-1.2,0c-0.2,0.1-0.3,0.2-0.5,0.3c-0.1,0.2-0.2,0.3-0.3,0.5S52.5,79.8,52.5,80z"/>
</svg>
