<?xml version="1.0" encoding="utf-8"?>
<!-- Generator: Adobe Illustrator 22.1.0, SVG Export Plug-In . SVG Version: 6.00 Build 0)  -->
<svg version="1.1" id="Layer_1" xmlns="http://www.w3.org/2000/svg" xmlns:xlink="http://www.w3.org/1999/xlink" x="0px" y="0px"
	 viewBox="0 0 346.7 365.4" style="enable-background:new 0 0 346.7 365.4;" xml:space="preserve">
<style type="text/css">
	.st0{fill:#DE6591;}
	.st1{fill:#FFFFFF;}
	.st2{fill:#231F20;}
	.st3{fill:#D1C5BC;}
	.st4{fill:#D1D0B9;}
	.st5{fill:#7B6F75;}
	.st6{fill:#565650;}
	.st7{fill:#615855;}
	.st8{fill:#ABA99B;}
	.st9{fill:#BDD1CE;}
	.st10{fill:#5B3B3C;}
	.st11{fill:#B28F49;}
	.st12{fill:#165D2F;}
	.st13{fill:#335EAB;}
</style>
<title>seoul-icon</title>
<g id="top">
	<polygon class="st0" points="85,1.2 85,38.2 82.1,38.2 82.1,63.1 80.8,63.1 80.8,88.3 77.1,88.3 77.1,98.1 73.1,98.1 73.1,110.3 
		69.1,110.3 69.1,128 79,132.1 79,185.8 78.9,186.3 95,178.6 95,131.8 105,128 105,110.1 100.9,110.2 100.9,98.1 97,98.1 97,88.4 
		92.9,88.4 92.9,63.3 91.8,63.3 91.8,38.1 89,38.1 89,7 89,1.2 87.6,0 86.1,0 	"/>
	<rect x="86.2" y="42.1" class="st1" width="2.2" height="21.8"/>
	<rect x="86.2" y="68.2" class="st1" width="2.7" height="20.8"/>
	<rect x="82.1" y="93.2" class="st1" width="9.8" height="4.1"/>
	<rect x="78.1" y="102.1" class="st1" width="18.8" height="8.8"/>
	<polygon class="st1" points="74.1,115.1 100.9,115.1 100.9,125 93.8,128.1 80.1,128.1 74.1,125.5 	"/>
	<polygon class="st1" points="84,133.1 90.5,133.1 90.5,179.9 84,182.9 	"/>
</g>
<g id="city">
	<polygon class="st2" points="0,223.1 11.2,223.1 11.2,215.4 16,215.4 16,223.1 20.9,223.1 20.9,215.4 24,215.4 24,223.1 
		37.8,223.1 37.8,213.8 74.5,213.8 74.5,218.5 79.2,218.5 79.2,226.9 78.8,251.7 64.2,251.7 64.2,260.4 57,260.4 48.6,274.8 
		0,285.1 	"/>
	<polygon class="st3" points="4.2,227.1 19.2,227.1 19.2,281 4.2,284.2 	"/>
	<polygon points="24.5,227.1 50,227.1 50,271.1 48.6,274.8 23.5,280.1 	"/>
	<polygon class="st4" points="26.8,255.7 45.8,255.7 45.8,275.4 26.8,279.5 	"/>
	<polygon class="st5" points="54.5,260.9 54.5,220.4 59,220.4 59,259.1 	"/>
	<rect x="43.5" y="218.4" class="st4" width="6.5" height="4.5"/>
	<polygon class="st6" points="62.8,220.6 69.1,220.6 69.1,231.3 69.1,243.1 62.8,243.1 	"/>
	<polygon class="st2" points="264.5,201.5 257.9,225.9 264.8,228.6 264.8,252.9 280.5,252.6 280.5,259.7 289.6,259.7 298,274.7 
		346.7,286.5 346.7,204.8 326.3,204.1 326.3,197.8 310.7,197.8 311,206.8 288.3,206.5 288.3,215.8 283,215.8 283.3,207.5 
		269.3,207.1 269.3,200.3 	"/>
	<polygon class="st7" points="314.7,208.8 342,208.8 342,285.3 314.7,278.7 	"/>
	<polygon class="st8" points="282.2,218.3 292.2,218.3 292.2,210 305.2,210 305.2,221.3 310.2,221.3 310.2,274.3 296.8,272.5 
		288.5,257.5 282.2,257.5 	"/>
	<polygon class="st9" points="270,212.1 270,252.2 277.7,251.4 277.7,212.1 	"/>
</g>
<g id="gate">
	<path class="st2" d="M257.9,225.9l6.7-24.4l20.6-7.4c0,0,1.8-2.9,0-4c0,0-36.9-5.8-53.5-26.2v-5.5h-4.9v4.7H119v-4.7h-4.4v5.1
		c0,0-21.1,23.5-51.5,25.8c0,0-7.3,3.3-1.3,5.5s18.2,5.6,18.2,5.6l8.7,25.5c0,0-20.9,6.9-30.4,6.9c0,0-4.4,4,4,5.3s12.9,2,12.9,2
		l3.8,11.5H64.2v8.7H57l-36.1,62.2H60l7.6-23.8h2.7l6.7,23.8h188.5l7.3-24h3.3l6.2,24l4.9-23.8h4.5l8.2,23.8h24.9l-35.1-62.9h-9.1
		v-7.1l-13.7-0.4l2.2-11.6l19.1-4.1c0,0,2.2-1,0-3.5C288.2,232.8,257.2,228.3,257.9,225.9z"/>
</g>
<g id="gate-color">
	<path class="st10" d="M85.6,202.3c0,0,126.7,5.7,175.2-0.2l-7.2,23.4h-162L85.6,202.3z"/>
	<path class="st10" d="M80.2,240.5c0,0,93.5,10.9,184.5,0v10.9H82.5L80.2,240.5z"/>
	<polygon class="st11" points="58.5,264.1 287,263.9 317,317.6 298.1,317.6 291.6,298.8 287.2,298.8 282.6,320.9 276.1,298.6 
		272.8,298.6 266.5,319 75.6,319 70.2,298.8 67.5,298.8 61,319.2 28.5,318.6 	"/>
</g>
<g id="roof">
	<path class="st12" d="M116.3,167.4H229c0,0,30,25.8,46.7,25v2.2c0,0-5.2,3.5-23.7,5s-125,0-125,0s-43.8,0-56.2-5.7l-1.8-0.7v-1.4
		C69.1,191.9,92.5,191.3,116.3,167.4z"/>
	<path class="st13" d="M255.3,229.4c0,0,15.8,5.3,20.3,4.8c0,0-26.8,4.5-38.8,4.8s-64,0-64,0h-57.5c0,0-37.7-1.3-38.5-2.5
		c0,0-6.2-1-6-2.3c0,0,12.7-1.4,19.7-4.9L255.3,229.4z"/>
</g>
<g id="door">
	<path class="st2" d="M146,317.6c0,0-5.9-45.5,27.2-44c0,0,28.8-4.2,26.8,44H146z"/>
	<path class="st10" d="M150,315.9v-19.2c0,0,9.2-20.8,20.8-19v38.2H150z"/>
	<path class="st10" d="M195.5,315.9v-19.2c0,0-9.2-20.8-20.8-19v38.2H195.5z"/>
</g>
<g id="Seoul">
	<path class="st2" d="M94.4,360.6v-5.8h2.8v4.6c0.9,0.8,1.9,1.5,2.9,2c1.3,0.6,2.6,0.9,4,0.8c0.9,0,1.8-0.2,2.6-0.5
		c0.8-0.3,1.6-0.8,2.2-1.3c0.7-0.6,1.2-1.4,1.5-2.2c0.4-0.9,0.6-2,0.6-3c0.3-2.9-1.3-5.6-3.9-6.8c-1.2-0.6-2.4-1.1-3.7-1.4
		c-1.3-0.4-2.5-0.9-3.7-1.5c-1.1-0.6-2.1-1.5-2.9-2.6c-0.9-1.4-1.3-3.1-1.2-4.8c0-1.2,0.1-2.3,0.4-3.5c0.3-1.1,0.8-2.2,1.4-3.1
		c0.7-0.9,1.6-1.7,2.7-2.3c1.3-0.6,2.7-0.9,4.1-0.9c1.2,0,2.5,0.2,3.6,0.5c1.5,0.4,2.9,1.2,4.1,2.4v5.4h-2.8v-3.7
		c-0.7-0.4-1.4-0.7-2.1-0.9c-0.9-0.2-1.9-0.4-2.8-0.4s-1.7,0.2-2.5,0.5c-0.7,0.3-1.3,0.8-1.8,1.4s-0.8,1.3-1,2
		c-0.2,0.8-0.4,1.6-0.4,2.5c-0.1,1.3,0.3,2.5,1.1,3.4c0.8,0.8,1.8,1.5,2.8,1.9c1.2,0.5,2.4,1,3.7,1.4c1.3,0.4,2.6,1,3.7,1.8
		c1.2,0.8,2.2,1.9,2.9,3.2c0.9,1.7,1.3,3.6,1.2,5.5c0,1.4-0.2,2.9-0.8,4.2c-0.4,1.2-1.1,2.3-2,3.2c-0.9,0.9-1.9,1.5-3,2
		c-1.2,0.5-2.4,0.7-3.7,0.7c-1.1,0-2.2-0.1-3.3-0.4c-1-0.3-1.9-0.6-2.8-1.1c-0.8-0.4-1.6-0.9-2.3-1.5
		C95.5,361.8,94.9,361.2,94.4,360.6z"/>
	<path class="st2" d="M117.5,361.9h2.9v-30h-2.9v-3.2h22.1v8h-2.8v-4.8h-13.6v13.2h14.6v3.1h-14.6v13.7h14.2V357h2.8v8h-22.8v-3.1
		H117.5z"/>
	<path class="st2" d="M144.4,346.9c0-2.5,0.4-4.9,1.3-7.2c0.8-2.2,2-4.2,3.5-5.9c1.4-1.7,3.2-3,5.2-4s4.1-1.5,6.3-1.5
		s4.4,0.5,6.3,1.5c2,1,3.7,2.3,5.2,4s2.7,3.8,3.5,5.9c0.9,2.3,1.3,4.8,1.3,7.2c0,2.5-0.4,4.9-1.3,7.2c-0.8,2.2-2,4.1-3.5,5.9
		c-1.4,1.7-3.2,3-5.2,4s-4.1,1.5-6.3,1.5s-4.3-0.5-6.3-1.5s-3.7-2.3-5.2-4s-2.7-3.7-3.5-5.9C144.8,351.8,144.4,349.3,144.4,346.9z
		 M147.2,346.9c0,2,0.3,4.1,1,6c0.7,1.8,1.6,3.4,2.9,4.9c1.2,1.4,2.7,2.6,4.3,3.4c3.3,1.6,7.1,1.6,10.4,0c1.6-0.8,3.1-1.9,4.3-3.3
		s2.2-3.1,2.9-4.9c1.4-3.9,1.4-8.1,0-12c-0.7-1.8-1.6-3.5-2.9-4.9c-1.2-1.4-2.6-2.5-4.3-3.3c-1.6-0.8-3.4-1.2-5.2-1.2
		s-3.6,0.4-5.2,1.2c-1.6,0.8-3.1,1.9-4.3,3.3c-1.2,1.5-2.2,3.1-2.9,4.9C147.6,342.8,147.2,344.9,147.2,346.9L147.2,346.9z"/>
	<path class="st2" d="M181.1,328.6h10.1v3.2h-3.8v21.3c0,1.3,0.2,2.7,0.6,3.9c0.4,1.1,0.9,2,1.7,2.9c0.7,0.8,1.6,1.4,2.6,1.8
		c1.1,0.4,2.2,0.6,3.3,0.6s2.2-0.2,3.3-0.6c1-0.4,1.9-1,2.6-1.8c0.8-0.8,1.4-1.8,1.7-2.9c0.4-1.3,0.7-2.6,0.7-3.9v-21.3h-3.7v-3.2
		h10v3.2h-3.5v21.4c0,1.8-0.3,3.5-0.8,5.2c-0.5,1.4-1.3,2.7-2.3,3.8c-1,1-2.2,1.8-3.5,2.3c-2.8,1-6,1-8.8,0
		c-1.3-0.5-2.5-1.3-3.5-2.3c-1-1.1-1.8-2.4-2.3-3.8c-0.6-1.7-0.9-3.5-0.8-5.2v-21.4h-3.5L181.1,328.6z"/>
	<path class="st2" d="M214.5,361.9h2.8v-30h-2.8v-3.2h9.4v3.2h-3.8v30h14.4V357h2.7v8h-22.7L214.5,361.9L214.5,361.9z"/>
</g>
</svg>
