<?xml version="1.0" encoding="utf-8"?>
<!-- Generator: Adobe Illustrator 22.1.0, SVG Export Plug-In . SVG Version: 6.00 Build 0)  -->
<svg version="1.1" id="Layer_1" xmlns="http://www.w3.org/2000/svg" xmlns:xlink="http://www.w3.org/1999/xlink" x="0px" y="0px"
	 viewBox="0 0 612 792" style="enable-background:new 0 0 612 792;" xml:space="preserve">
<style type="text/css">
	.st0{fill:none;stroke:#4CC0EF;stroke-width:3;}
	.st1{fill:none;stroke:#1A0C13;}
</style>
<g id="box">
	<path class="st0" d="M298.3,264.4l-202,41.2c-6.9,1.4-13.7-3.1-15.1-10l-15-73.7c-1.4-6.9,3.1-13.7,10-15.1l202-41.2
		c6.9-1.4,13.7,3.1,15.1,10l15,73.7C309.7,256.2,305.2,263,298.3,264.4z"/>
</g>
<g id="fromKorea">
	<g>
		<g>
			<path class="st1" d="M108.8,228.5l-12.7,2.2l-0.9-5.4c-0.4-2.5-0.9-4.1-1.3-4.7c-0.4-0.6-1.1-0.9-1.8-0.7
				c-0.8,0.1-1.4,0.7-1.6,1.7c-0.3,1-0.2,2.4,0.1,4.3c0.4,2.4,1,4.2,1.7,5.3s2.2,2.4,4.7,3.7c7,3.9,11.5,7.3,13.7,10.2
				c2.1,2.9,3.8,7.9,5.1,15c0.9,5.1,1.1,9,0.7,11.6s-1.8,4.9-4,7s-5,3.4-8.3,4c-3.7,0.6-7,0.2-9.9-1.2s-5.1-3.6-6.4-6.4
				s-2.5-6.9-3.4-12.3l-0.8-4.7l12.7-2.2l1.6,8.8c0.5,2.7,1,4.4,1.4,5.1c0.5,0.7,1.2,1,2.1,0.8s1.5-0.8,1.8-1.8
				c0.3-1.1,0.2-2.5-0.1-4.5c-0.8-4.2-1.7-7-2.7-8.1c-1.1-1.1-3.6-3-7.6-5.4c-3.9-2.5-6.6-4.3-7.9-5.5s-2.6-3-3.8-5.3
				c-1.2-2.3-2.1-5.4-2.8-9.3c-1-5.5-1.2-9.7-0.6-12.4s1.9-5,3.9-6.9s4.7-3.1,7.9-3.6c3.6-0.6,6.7-0.4,9.5,0.8
				c2.8,1.1,4.8,2.8,6,5.1c1.2,2.2,2.4,6.2,3.4,12L108.8,228.5z"/>
			<path class="st1" d="M151.6,256.1c1.3,7.3,2.1,12.5,2.4,15.6c0.3,3.1,0,6-0.9,8.7c-0.9,2.8-2.3,5-4.3,6.7s-4.5,2.9-7.4,3.4
				c-2.8,0.5-5.5,0.3-7.9-0.6c-2.5-0.9-4.6-2.5-6.4-4.8c-1.8-2.3-3.1-4.9-3.9-7.9s-1.8-8.2-3.2-15.6l-2.2-12.4
				c-1.3-7.3-2.1-12.5-2.4-15.6s0-6,0.9-8.7c0.9-2.8,2.3-5,4.3-6.7s4.5-2.9,7.4-3.4c2.8-0.5,5.5-0.3,7.9,0.6s4.6,2.5,6.4,4.8
				c1.8,2.3,3.1,4.9,3.9,7.9c0.8,2.9,1.8,8.2,3.2,15.6L151.6,256.1z M133.6,234.7c-0.6-3.4-1.1-5.5-1.6-6.4s-1.1-1.3-1.9-1.1
				c-0.7,0.1-1.2,0.6-1.4,1.4c-0.2,0.8,0,3.1,0.6,6.9l6,34c0.7,4.2,1.3,6.8,1.8,7.8c0.4,0.9,1.1,1.3,2,1.2c0.9-0.2,1.4-0.8,1.5-2
				s-0.3-3.9-1-8.2L133.6,234.7z"/>
			<path class="st1" d="M175.8,193.3l-1.4,50.8l4.9,27.8l-12.7,2.2l-4.9-27.8L143.4,199l12.6-2.2c4.6,14.6,7.5,24.5,8.7,29.7
				c-0.7-8.3-1.2-18.6-1.5-30.9L175.8,193.3z"/>
			<path class="st1" d="M255.8,237.4c1.3,7.2,2,12.4,2.3,15.4s0,5.9-0.9,8.7c-0.9,2.7-2.3,5-4.3,6.7s-4.5,2.9-7.5,3.4
				c-2.8,0.5-5.5,0.3-7.9-0.5c-2.5-0.9-4.6-2.4-6.4-4.7s-3.1-4.9-3.9-7.8c-0.8-2.9-1.8-8.1-3.1-15.5l-2.2-12.3
				c-1.3-7.2-2.1-12.4-2.3-15.4c-0.3-3.1,0-5.9,0.9-8.7c0.9-2.7,2.3-4.9,4.3-6.7s4.5-2.9,7.5-3.4c2.8-0.5,5.5-0.3,7.9,0.6
				c2.5,0.9,4.6,2.4,6.4,4.7s3.1,4.9,3.9,7.8s1.8,8.1,3.1,15.5L255.8,237.4z M238,216.1c-0.6-3.4-1.1-5.5-1.5-6.4s-1.1-1.3-1.9-1.1
				c-0.7,0.1-1.2,0.6-1.4,1.4c-0.2,0.8,0,3.1,0.6,6.8l5.9,33.6c0.7,4.2,1.3,6.7,1.7,7.7s1.1,1.3,2,1.2c0.9-0.2,1.4-0.8,1.5-2
				s-0.3-3.9-1-8.1L238,216.1z"/>
			<path class="st1" d="M216.4,237.4c1.3,7.2,2.1,12.4,2.3,15.4s0,5.9-0.9,8.7c-0.9,2.7-2.3,5-4.3,6.7s-4.5,2.9-7.5,3.4
				c-2.8,0.5-5.5,0.3-7.9-0.5c-2.5-0.9-4.6-2.4-6.4-4.7s-3.1-4.9-3.9-7.8c-0.8-2.9-1.8-8.1-3.1-15.5l-2.2-12.3
				c-1.3-7.2-2.1-12.4-2.3-15.4c-0.3-3.1,0-5.9,0.9-8.7c0.9-2.7,2.3-4.9,4.3-6.7s4.5-2.9,7.5-3.4c2.8-0.5,5.5-0.3,7.9,0.6
				c2.5,0.9,4.6,2.4,6.4,4.7s3.1,4.9,3.9,7.8s1.8,8.1,3.1,15.5L216.4,237.4z M198.5,216.1c-0.6-3.4-1.1-5.5-1.5-6.4
				s-1.1-1.3-1.9-1.1c-0.7,0.1-1.2,0.6-1.4,1.4c-0.2,0.8,0,3.1,0.6,6.8l5.9,33.6c0.7,4.2,1.3,6.7,1.7,7.7s1.1,1.3,2,1.2
				c0.9-0.2,1.4-0.8,1.5-2s-0.3-3.9-1-8.1L198.5,216.1z"/>
			<path class="st1" d="M281.6,174.6l12.9,73.4l-12,2.1l-13-32.1l5.9,33.4l-11.5,2L251,180l11.5-2l13.5,31.7l-5.8-33.1L281.6,174.6z
				"/>
		</g>
	</g>
</g>
</svg>
