<?xml version="1.0" encoding="utf-8"?>
<!-- Generator: Adobe Illustrator 22.1.0, SVG Export Plug-In . SVG Version: 6.00 Build 0)  -->
<svg version="1.1" id="Layer_1" xmlns="http://www.w3.org/2000/svg" xmlns:xlink="http://www.w3.org/1999/xlink" x="0px" y="0px"
	 viewBox="0 0 64 46.8" style="enable-background:new 0 0 64 46.8;" xml:space="preserve">
<style type="text/css">
	.st0{fill:none;stroke:#FCCCBC;stroke-width:0.5;stroke-miterlimit:10;}
	.st1{fill:none;stroke:#B73125;stroke-width:0.5;stroke-miterlimit:10;}
	.st2{fill:none;stroke:#2B348F;stroke-width:0.5;stroke-miterlimit:10;}
	.st3{fill:none;stroke:#54B948;stroke-width:0.5;stroke-miterlimit:10;}
</style>
<title>Asset 2</title>
<circle class="st0" cx="39.1" cy="5.8" r="5"/>
<polygon class="st1" points="18.2,12.2 35.9,11.6 38,15.5 31,22.6 30.9,17.1 18.2,17.7 "/>
<path class="st0" d="M17,12.4v6c0,0-6.1,0.6-6-2.4S11.8,12,17,12.4z"/>
<polygon class="st0" points="38,11.6 41,11.6 41,13 39.5,14.2 38,14.2 "/>
<path class="st2" d="M44.1,11.6c0,0,10.2-1.4,9.8-3.4s-1.3-2.4-1.3-2.4l2.5-3c0,0,9,1.9,8.6,6s-17.6,8.2-17.6,8.2L42.6,25H31.1v-1.1
	L44.1,11.6z"/>
<path class="st3" d="M7.6,26l-1,6.1l24.5-0.6L29.5,37c-1.5,0.6-3.3-0.2-3.9-1.7c0-0.1-0.1-0.3-0.1-0.4l-1.6-0.2l-0.5,4.9l-0.1,1.8
	c0,0,7.6,6.2,9,5.2s8.8-19,8.8-19V26H7.6z"/>
<path class="st0" d="M21.1,39.5c0,0-5.4-2.3-4.1-5s5.5-1.1,5.5-1.1L21.1,39.5z"/>
<path class="st0" d="M5.9,26l-0.8,6.4c0,0-4.9,0.2-4.9-1.4S0.9,26,5.9,26z"/>
<path class="st0" d="M49,0.9c0,0,5-1.8,5,0.8s-3.2,4.2-3.2,4.2s-3.5-0.7-3.3-2.1C47.7,2.7,48.2,1.7,49,0.9z"/>
</svg>
