<?xml version="1.0" encoding="utf-8"?>
<!-- Generator: Adobe Illustrator 22.1.0, SVG Export Plug-In . SVG Version: 6.00 Build 0)  -->
<svg version="1.1" id="Korea" xmlns="http://www.w3.org/2000/svg" xmlns:xlink="http://www.w3.org/1999/xlink" x="0px" y="0px"
	 viewBox="0 0 122.3 228" style="enable-background:new 0 0 122.3 228;" xml:space="preserve">
<style type="text/css">
	.st0{fill:none;stroke:#D42027;stroke-miterlimit:10;}
	.st1{stroke:#231F20;stroke-miterlimit:10;}
	.st2{fill:none;stroke:#2D2E82;stroke-miterlimit:10;}
	.st3{stroke:#000000;stroke-miterlimit:10;}
</style>
<g id="N">
	<path class="st0" d="M25.6,100.4v6.5c0,0-5.7,2.4-6.5,7.3c0,0-5.7,3.5,0,5.7l2,2.7c0,0-4.9-0.3-4.5,1.6c0,0-2.8,3.2,0,5.7
		c2.8,2.4,4.2,6.8,9,6.8c3.7,0.1,7.3,0.7,10.8,1.6c0,0,3.2,1.9,6.2,0c2.1-1.3,4.3-2.5,6.5-3.5l5.7-4.6l5.2-1.9
		c0,0,10.8-1.1,12.2-3.2c1-1.4,2.4-2.6,4.1-3.2c0,0,3.5-4.6,0-6.2s-15.2-6.8-14.1-9.2c1-2.1,2.2-4.1,3.5-6l0.3-5.1L65.7,92
		c0,0,8.1-2.2,8.7-5.1s2.2-1.9,2.2-1.9l6-0.2c0,0,11.4-2.2,11.6-5c0.3-2.1,1-4.1,1.9-6v-5.1c0,0,8.1-2.4,8.9-5.7s1.1-9.8,0-10.6
		s-2.2-7.8-2.2-7.8s4.1-1.1,4.3-3.5c0.2-1.6,0.2-3.3,0-4.9c0,0,5.9-1.9,7.3-4.9s5.7-7.3,5.7-7.3c2.2-2.6,2.2-6.4,0-8.9l-2.7-5.4
		L118,7c0,0,3.2-6.5-3-6.5c0,0-6-0.3-7,3.2s-3.2,5.7-1.3,8.1c0,0,0,6.8-3.2,7.3s-7.9,0-7.3,8.4l-5.4,3L83,33.7c0,0-6.2-0.3-7,3.5
		s1.1,5.4,1.1,5.4h-5.3L65,43.9L59.5,43c0,0-5.4-8.9-11.4-4.9s-6,6.5-6,6.5l0.3,4.4l-12.2,8.9c0,0-7.6,3.2-7,6.8L17,68.2
		c0,0-3.2,2.7-4.1,5.2l-7.6,4.3c0,0-10.8,5.7,0,10.3c0,0,4.9,6,7.3,5.4C12.6,93.4,21.3,103.7,25.6,100.4z"/>
	<path class="st1" d="M38.1,77.2c0,0.8,0,1.8,0,2.8s0,1.8,0,2.3c0,1.5,0,2.7,0,3.5s0,1.3,0,1.4l-1,0.5c-1.6-2.1-3.1-4-4.5-5.7
		c-1.4-1.7-2.1-2.7-2.4-3l0,0c0,1.4,0,3.1,0,5.2s0,3.2,0,3.5H29c0-0.1,0-0.6,0-1.4s0-1.9,0-3.3c0-0.6,0-1.3,0-2.3s0-1.9,0-3l1.2-0.6
		l2.4,3c1.5,1.9,2.9,3.7,4.2,5.3l0,0c0-0.8,0-2.1,0-4s0-3.3,0-4.2L38.1,77.2z"/>
	<path class="st1" d="M48.3,83.7c0,0.6-0.1,1.2-0.3,1.7s-0.6,1-1,1.4c-0.3,0.3-0.7,0.6-1.2,0.8c-0.5,0.2-0.9,0.3-1.4,0.3
		s-1-0.1-1.4-0.3c-0.4-0.2-0.8-0.4-1.2-0.7c-0.4-0.4-0.7-0.9-0.9-1.4c-0.4-1.1-0.4-2.3,0-3.4c0.2-0.5,0.5-1,0.9-1.3
		c0.3-0.4,0.7-0.6,1.1-0.8c0.5-0.2,1-0.3,1.5-0.3s1,0.1,1.5,0.3c0.4,0.2,0.8,0.5,1.2,0.8c0.4,0.4,0.7,0.9,0.9,1.4
		C48.2,82.6,48.3,83.1,48.3,83.7z M47,83.8c0-0.5-0.1-1-0.2-1.4c-0.1-0.4-0.4-0.8-0.7-1.2c-0.2-0.2-0.5-0.4-0.7-0.5
		c-0.3-0.1-0.6-0.2-0.9-0.2c-0.3,0-0.6,0.1-0.9,0.2c-0.3,0.1-0.5,0.3-0.8,0.5c-0.3,0.3-0.5,0.7-0.7,1.1s-0.2,0.9-0.2,1.4
		s0.1,1,0.2,1.5c0.2,0.4,0.4,0.8,0.8,1.2c0.2,0.2,0.4,0.3,0.7,0.4s0.6,0.2,0.8,0.2c0.3,0,0.6-0.1,0.9-0.2c0.3-0.1,0.5-0.3,0.7-0.5
		c0.3-0.3,0.5-0.7,0.7-1.1C47,84.7,47.1,84.2,47,83.8z"/>
	<path class="st1" d="M55,80.7c-0.4,0.1-0.9,0.3-1.3,0.4c-0.6,0.2-1.3,0.5-2,0.9c0,0,0,0.3,0,0.8v1.3c0,0.6,0,1.3,0,2.2s0,1.3,0,1.4
		h-1.2c0-0.1,0-0.4,0-0.9s0-1.3,0-2.5v-2c0-0.9,0-1.7,0-2.5h1.2V81l0,0c0.6-0.3,1.1-0.6,1.7-0.9c0.4-0.2,0.9-0.4,1.4-0.5L55,80.7z"
		/>
	<path class="st1" d="M60.9,86.7l-0.1,1h-0.6c-0.9,0.1-1.7-0.2-2.4-0.7c-0.6-0.5-0.9-1.2-0.8-2c0-0.6,0-1.2,0-1.9s0-1.5,0-2.5h-1.3
		v-0.9H57v-1.9h1.1v1.8h2.8v0.9h-2.8c0,0.1,0,0.4,0,1s0,0.9,0,1.2v1.9c0,0.5,0.2,1.1,0.5,1.5c0.5,0.3,1.1,0.5,1.7,0.4L60.9,86.7
		L60.9,86.7z"/>
	<path class="st1" d="M69.4,87.7h-1.2c0-0.2,0-0.6,0-1.4s0-1.3,0-1.6v-1.2c0-0.5,0-0.9,0-1.2c0-0.5-0.1-0.9-0.3-1.3
		c-0.3-0.3-0.7-0.4-1.1-0.4s-0.8,0.1-1.1,0.3c-0.5,0.2-1,0.4-1.5,0.7v6H63c0-0.2,0-1,0-2.5s0-2.6,0-3.5v-2.3c0-0.9,0-2,0-3.2h1.2
		v4.4l0,0c0.6-0.3,1.2-0.6,1.8-0.9c0.4-0.1,0.8-0.2,1.2-0.2c0.6,0,1.2,0.2,1.6,0.6c0.4,0.5,0.6,1.1,0.6,1.7c0,0.7,0,1.2,0,1.7
		s0,0.9,0,1.2c0,0.5,0,1,0,1.6S69.4,87.4,69.4,87.7z"/>
</g>
<g id="S">
	<path class="st2" d="M38.1,165.1c0,0-11.1-1.9-5.7-8.4c3-3.8,7.7-5.6,12.5-4.9l3.2-0.2v-3.3c0,0-3-6.8,0-7.9s9.2-9.2,16.8-9.7
		l7.6-0.5c0,0,8.9-13.3,11.6-6.5l3.5,5.7c0,0,3,6.2,1.6,7c0,0,19,11.4,12.2,28.7l1.5,7.6c0,0,7.2,1.4,4.5,9.8l-5.4,9.2v7.9
		c0,0-3.2,3.8-5.1,2.4c0,0-4.6,4.1-6.5,3.2c-1.3-0.5-2.8-0.4-4.1,0.1l-3,6.7c0,0-4.1,6.2-9.8,3.2s-7.3-6-8.9-3.5s-1.6,6.2-1.6,6.2
		l-8.7,2.4c0,0-7.8,11.9-13.8,4.9c0,0-7.8-0.8-4.1-7.9l0.5-6.2c0,0-1.6-7.3,2.7-10.3s0.5-15.4,0.5-15.4l3.2-13L38.1,165.1z"/>
	<path class="st3" d="M55.7,172c0,0.5-0.1,1-0.4,1.4c-0.2,0.4-0.6,0.8-1,1s-0.9,0.4-1.3,0.5c-0.6,0.1-1.1,0.2-1.7,0.2h-1h-0.6
		l-0.1-1.1l0.6,0.1c0.3,0,0.7,0,1.2,0c0.4,0,0.7,0,1.1-0.1c0.3,0,0.7-0.1,1-0.3c0.3-0.1,0.5-0.3,0.7-0.6c0.2-0.2,0.3-0.5,0.2-0.8
		c0-0.3-0.1-0.6-0.2-0.9c-0.2-0.3-0.5-0.5-0.8-0.7c-0.2-0.1-0.6-0.3-1-0.5c-0.3-0.2-0.7-0.4-1-0.6c-0.5-0.3-0.9-0.6-1.1-1.1
		c-0.2-0.4-0.3-0.8-0.3-1.3c0-0.4,0.1-0.9,0.3-1.2c0.2-0.4,0.5-0.7,0.8-0.9c0.4-0.3,0.8-0.5,1.2-0.6c0.5-0.1,1.1-0.2,1.6-0.2
		c0.3,0,0.7,0,1,0h0.6l0.1,1.1H55c-0.4,0-0.8-0.1-1.2-0.1c-0.3,0-0.6,0-0.9,0.1c-0.3,0.1-0.6,0.2-0.8,0.3s-0.4,0.3-0.5,0.5
		c-0.2,0.2-0.2,0.5-0.2,0.8s0.1,0.5,0.2,0.7c0.2,0.3,0.5,0.6,0.9,0.7c0.3,0.2,0.6,0.3,0.8,0.4c0.3,0.2,0.7,0.4,1,0.6
		c0.5,0.2,0.9,0.6,1.2,1C55.6,171,55.7,171.5,55.7,172z"/>
	<path class="st3" d="M65,171c0,0.6-0.1,1.2-0.3,1.7c-0.2,0.5-0.5,1-0.9,1.4c-0.3,0.3-0.7,0.6-1.1,0.8c-0.5,0.2-0.9,0.3-1.4,0.3
		s-1-0.1-1.4-0.3c-1-0.4-1.7-1.2-2.1-2.1c-0.2-0.6-0.3-1.2-0.3-1.8s0.1-1.1,0.3-1.6s0.5-1,0.9-1.4c0.3-0.4,0.8-0.6,1.2-0.8
		c0.5-0.2,1-0.3,1.5-0.3s1,0.1,1.5,0.3c0.4,0.2,0.8,0.5,1.2,0.8c0.4,0.4,0.7,0.9,0.9,1.4C64.9,169.9,65,170.4,65,171z M63.8,171.1
		c0-0.5-0.1-1-0.2-1.4c-0.1-0.4-0.4-0.8-0.7-1.2c-0.2-0.2-0.4-0.4-0.7-0.4c-0.3-0.1-0.6-0.2-0.9-0.2c-0.6,0-1.3,0.2-1.7,0.7
		c-0.3,0.3-0.5,0.7-0.7,1.1c-0.2,0.4-0.2,0.9-0.2,1.4s0.1,1,0.2,1.5c0.2,0.4,0.4,0.8,0.8,1.1c0.4,0.4,1,0.6,1.5,0.6
		c0.3,0,0.6-0.1,0.9-0.2c0.3-0.1,0.5-0.3,0.8-0.5c0.3-0.3,0.5-0.7,0.7-1.1C63.7,172,63.8,171.5,63.8,171.1L63.8,171.1z"/>
	<path class="st3" d="M73.6,175h-1.2v-0.9l0,0c-0.4,0.3-0.9,0.5-1.4,0.7s-1.1,0.4-1.6,0.4c-0.6,0-1.2-0.2-1.7-0.6
		c-0.4-0.5-0.6-1.1-0.6-1.8c0-0.4,0-0.9,0-1.5s0-1,0-1.2c0-0.5,0-1.1,0-1.8s0-1.1,0-1.2h1.2c0,0.1,0,0.4,0,1.1s0,1.2,0,1.6
		s0,0.8,0,1.4s0,0.9,0,1.1c0,0.5,0.1,0.9,0.3,1.4c0.2,0.3,0.6,0.5,1,0.4c0.5,0,1.1-0.1,1.5-0.4c0.4-0.2,0.8-0.4,1.2-0.6
		c0-0.1,0-0.4,0-0.9s0-1.2,0-1.9c0-0.6,0-1.2,0-2s0-1.2,0-1.2h1.2c0,0.1,0,0.4,0,0.9s0,1.3,0,2.5c0,0.7,0,1.3,0,1.8
		S73.6,173.7,73.6,175z"/>
	<path class="st3" d="M80.8,174l-0.1,1H80c-0.9,0.1-1.7-0.2-2.4-0.7c-0.6-0.5-0.9-1.3-0.8-2.1c0-0.6,0-1.2,0-1.9s0-1.5,0-2.5h-1.3
		V167h1.4v-1.9H78v1.9h2.8v1H78c0,0.1,0,0.4,0,1s0,0.9,0,1.2v1.9c-0.1,0.5,0.2,1.1,0.6,1.5c0.5,0.3,1.1,0.5,1.7,0.4L80.8,174
		L80.8,174z"/>
	<path class="st3" d="M89.2,175H88c0-0.1,0-0.6,0-1.4s0-1.3,0-1.6s0-0.7,0-1.2s0-0.9,0-1.2c0-0.5-0.1-0.9-0.3-1.3
		c-0.3-0.3-0.7-0.4-1.1-0.4s-0.8,0.1-1.1,0.3c-0.5,0.2-1,0.4-1.4,0.7v6h-1.2c0-0.2,0-1,0-2.4s0-2.6,0-3.6c0-0.6,0-1.4,0-2.3
		s0-2,0-3.2H84v4.4l0,0c0.6-0.3,1.2-0.6,1.8-0.9c0.4-0.2,0.8-0.2,1.2-0.2c0.6,0,1.2,0.2,1.6,0.6c0.4,0.5,0.6,1.1,0.6,1.7
		c0,0.7,0,1.2,0,1.7s0,0.9,0,1.2c0,0.5,0,1,0,1.6S89.2,174.8,89.2,175z"/>
</g>
</svg>
